ffmpeg started on 2025-05-12 at 13:16:35
Report written to "D:\Convert\FFMetrics\reports\ssim_report-6.txt"
Log level: 32
Command line:
ffmpeg -hide_banner -nostdin -i "G:\\\xc0\xed\xe8\xec\xe5\\\xce\xed\xe3\xee\xe8\xed\xe3\xe8\\!_35_\xcb\xe5\xf2\xee_2024\\DreamCast\\\xc0\xeb\xff \xe8\xed\xee\xe3\xe4\xe0 \xea\xee\xea\xe5\xf2\xed\xe8\xf7\xe0\xe5\xf2 \xf1\xee \xec\xed\xee\xe9 \xef\xee-\xf0\xf3\xf1\xf1\xea\xe8\\[DC] Roshidere - 08_Telegram_HEVC.mkv" -i "G:\\\xc0\xed\xe8\xec\xe5\\\xce\xed\xe3\xee\xe8\xed\xe3\xe8\\!_35_\xcb\xe5\xf2\xee_2024\\DreamCast\\\xc0\xeb\xff \xe8\xed\xee\xe3\xe4\xe0 \xea\xee\xea\xe5\xf2\xed\xe8\xf7\xe0\xe5\xf2 \xf1\xee \xec\xed\xee\xe9 \xef\xee-\xf0\xf3\xf1\xf1\xea\xe8\\[DC] Roshidere - 08_Telegram.mp4" -lavfi "[0:v]settb=AVTB,setpts=PTS-STARTPTS,format=pix_fmts=yuv420p10,fps=24000/1001,scale=1920:1080:flags=bicubic[main];[1:v]settb=AVTB,setpts=PTS-STARTPTS,format=pix_fmts=yuv420p,fps=24000/1001,scale=1920:1080:flags=bicubic[ref];[main][ref]ssim=eof_action=endall:stats_file='D\\:/Convert/FFMetrics/logs/ssim_logfile-6.txt'" -f null -
Input #0, matroska,webm, from 'G:\Аниме\Онгоинги\!_35_Лето_2024\DreamCast\Аля иногда кокетничает со мной по-русски\[DC] Roshidere - 08_Telegram_HEVC.mkv':
  Metadata:
    COMPATIBLE_BRANDS: isomiso2avc1mp41
    MAJOR_BRAND     : isom
    MINOR_VERSION   : 512
    ENCODER         : Lavf61.7.100
  Duration: 00:24:17.03, start: -0.021000, bitrate: 760 kb/s
  Stream #0:0: Video: hevc (Main 10), yuv420p10le(tv, bt709, progressive), 1920x1080 [SAR 1:1 DAR 16:9], 23.98 fps, 23.98 tbr, 1k tbn (default)
      Metadata:
        HANDLER_NAME    : VideoHandler
        VENDOR_ID       : [0][0][0][0]
        ENCODER         : Lavc61.19.100 libx265
        BPS             : 563662
        DURATION        : 00:24:16.538708333
        NUMBER_OF_FRAMES: 34922
        NUMBER_OF_BYTES : 102624408
        _STATISTICS_WRITING_APP: mkvpropedit v66.0.0 ('Josie') 64-bit
        _STATISTICS_WRITING_DATE_UTC: 2025-05-06 12:37:06
        _STATISTICS_TAGS: BPS DURATION NUMBER_OF_FRAMES NUMBER_OF_BYTES
  Stream #0:1: Audio: aac (LC), 48000 Hz, stereo, fltp (default)
      Metadata:
        HANDLER_NAME    : SoundHandler
        VENDOR_ID       : [0][0][0][0]
        ENCODER         : Lavc61.19.100 aac
        BPS             : 193479
        DURATION        : 00:24:17.024000000
        NUMBER_OF_FRAMES: 68299
        NUMBER_OF_BYTES : 35238107
        _STATISTICS_WRITING_APP: mkvpropedit v66.0.0 ('Josie') 64-bit
        _STATISTICS_WRITING_DATE_UTC: 2025-05-06 12:37:06
        _STATISTICS_TAGS: BPS DURATION NUMBER_OF_FRAMES NUMBER_OF_BYTES
Input #1, mov,mp4,m4a,3gp,3g2,mj2, from 'G:\Аниме\Онгоинги\!_35_Лето_2024\DreamCast\Аля иногда кокетничает со мной по-русски\[DC] Roshidere - 08_Telegram.mp4':
  Metadata:
    major_brand     : isom
    minor_version   : 512
    compatible_brands: isomiso2avc1mp41
    encoder         : Lavf60.16.100
  Duration: 00:24:16.99, start: 0.000000, bitrate: 3682 kb/s
  Stream #1:0[0x1](und): Video: h264 (High) (avc1 / 0x31637661), yuv420p(tv, bt709, progressive), 1920x1080 [SAR 1:1 DAR 16:9], 3536 kb/s, 23.98 fps, 23.98 tbr, 24k tbn (default)
      Metadata:
        handler_name    : VideoHandler
        vendor_id       : [0][0][0][0]
        encoder         : Lavc60.31.102 h264_qsv
  Stream #1:1[0x2](und): Audio: aac (HE-AACv2) (mp4a / 0x6134706D), 48000 Hz, stereo, fltp, 144 kb/s (default)
      Metadata:
        handler_name    : SoundHandler
        vendor_id       : [0][0][0][0]
Stream mapping:
  Stream #0:0 (hevc) -> settb:default
  Stream #1:0 (h264) -> settb:default
  ssim:default -> Stream #0:0 (wrapped_avframe)
  Stream #0:1 -> #0:1 (aac (native) -> pcm_s16le (native))
Output #0, null, to 'pipe:':
  Metadata:
    COMPATIBLE_BRANDS: isomiso2avc1mp41
    MAJOR_BRAND     : isom
    MINOR_VERSION   : 512
    encoder         : Lavf61.7.100
  Stream #0:0: Video: wrapped_avframe, yuv420p10le(tv, bt709, progressive), 1920x1080 [SAR 1:1 DAR 16:9], q=2-31, 200 kb/s, 23.98 fps, 23.98 tbn
      Metadata:
        encoder         : Lavc61.19.100 wrapped_avframe
  Stream #0:1: Audio: pcm_s16le, 48000 Hz, stereo, s16, 1536 kb/s (default)
      Metadata:
        HANDLER_NAME    : SoundHandler
        VENDOR_ID       : [0][0][0][0]
        _STATISTICS_TAGS: BPS DURATION NUMBER_OF_FRAMES NUMBER_OF_BYTES
        BPS             : 193479
        DURATION        : 00:24:17.024000000
        NUMBER_OF_FRAMES: 68299
        NUMBER_OF_BYTES : 35238107
        _STATISTICS_WRITING_APP: mkvpropedit v66.0.0 ('Josie') 64-bit
        _STATISTICS_WRITING_DATE_UTC: 2025-05-06 12:37:06
        encoder         : Lavc61.19.100 pcm_s16le
frame=  176 fps=0.0 q=-0.0 size=N/A time=00:00:07.34 bitrate=N/A speed=14.3x    frame=  353 fps=341 q=-0.0 size=N/A time=00:00:14.72 bitrate=N/A speed=14.2x    frame=  551 fps=357 q=-0.0 size=N/A time=00:00:22.98 bitrate=N/A speed=14.9x    frame=  761 fps=368 q=-0.0 size=N/A time=00:00:31.74 bitrate=N/A speed=15.4x    frame=  954 fps=371 q=-0.0 size=N/A time=00:00:39.78 bitrate=N/A speed=15.5x    frame= 1161 fps=375 q=-0.0 size=N/A time=00:00:48.42 bitrate=N/A speed=15.6x    frame= 1369 fps=380 q=-0.0 size=N/A time=00:00:57.09 bitrate=N/A speed=15.8x    frame= 1538 fps=373 q=-0.0 size=N/A time=00:01:04.14 bitrate=N/A speed=15.5x    frame= 1699 fps=367 q=-0.0 size=N/A time=00:01:10.86 bitrate=N/A speed=15.3x    frame= 1890 fps=366 q=-0.0 size=N/A time=00:01:18.82 bitrate=N/A speed=15.3x    frame= 2086 fps=368 q=-0.0 size=N/A time=00:01:27.00 bitrate=N/A speed=15.4x    frame= 2322 fps=375 q=-0.0 size=N/A time=00:01:36.84 bitrate=N/A speed=15.7x    frame= 2583 fps=386 q=-0.0 size=N/A time=00:01:47.73 bitrate=N/A speed=16.1x    frame= 2858 fps=396 q=-0.0 size=N/A time=00:01:59.20 bitrate=N/A speed=16.5x    frame= 3131 fps=405 q=-0.0 size=N/A time=00:02:10.58 bitrate=N/A speed=16.9x    frame= 3405 fps=413 q=-0.0 size=N/A time=00:02:22.01 bitrate=N/A speed=17.2x    frame= 3688 fps=420 q=-0.0 size=N/A time=00:02:33.82 bitrate=N/A speed=17.5x    frame= 3956 fps=426 q=-0.0 size=N/A time=00:02:44.99 bitrate=N/A speed=17.8x    frame= 4237 fps=432 q=-0.0 size=N/A time=00:02:56.71 bitrate=N/A speed=  18x    frame= 4503 fps=437 q=-0.0 size=N/A time=00:03:07.81 bitrate=N/A speed=18.2x    frame= 4782 fps=441 q=-0.0 size=N/A time=00:03:19.44 bitrate=N/A speed=18.4x    frame= 5016 fps=442 q=-0.0 size=N/A time=00:03:29.20 bitrate=N/A speed=18.5x    frame= 5263 fps=444 q=-0.0 size=N/A time=00:03:39.51 bitrate=N/A speed=18.5x    frame= 5532 fps=447 q=-0.0 size=N/A time=00:03:50.73 bitrate=N/A speed=18.6x    frame= 5802 fps=450 q=-0.0 size=N/A time=00:04:01.99 bitrate=N/A speed=18.8x    frame= 6064 fps=452 q=-0.0 size=N/A time=00:04:12.91 bitrate=N/A speed=18.9x    frame= 6304 fps=453 q=-0.0 size=N/A time=00:04:22.92 bitrate=N/A speed=18.9x    frame= 6548 fps=453 q=-0.0 size=N/A time=00:04:33.10 bitrate=N/A speed=18.9x    frame= 6804 fps=455 q=-0.0 size=N/A time=00:04:43.78 bitrate=N/A speed=  19x    frame= 7075 fps=457 q=-0.0 size=N/A time=00:04:55.08 bitrate=N/A speed=19.1x    frame= 7341 fps=459 q=-0.0 size=N/A time=00:05:06.18 bitrate=N/A speed=19.2x    frame= 7605 fps=461 q=-0.0 size=N/A time=00:05:17.19 bitrate=N/A speed=19.2x    frame= 7873 fps=463 q=-0.0 size=N/A time=00:05:28.36 bitrate=N/A speed=19.3x    frame= 8144 fps=464 q=-0.0 size=N/A time=00:05:39.67 bitrate=N/A speed=19.4x    frame= 8397 fps=465 q=-0.0 size=N/A time=00:05:50.22 bitrate=N/A speed=19.4x    frame= 8659 fps=466 q=-0.0 size=N/A time=00:06:01.15 bitrate=N/A speed=19.4x    frame= 8896 fps=466 q=-0.0 size=N/A time=00:06:11.03 bitrate=N/A speed=19.4x    frame= 9160 fps=467 q=-0.0 size=N/A time=00:06:22.04 bitrate=N/A speed=19.5x    frame= 9430 fps=468 q=-0.0 size=N/A time=00:06:33.30 bitrate=N/A speed=19.5x    frame= 9713 fps=470 q=-0.0 size=N/A time=00:06:45.11 bitrate=N/A speed=19.6x    frame= 9999 fps=472 q=-0.0 size=N/A time=00:06:57.04 bitrate=N/A speed=19.7x    frame=10257 fps=473 q=-0.0 size=N/A time=00:07:07.80 bitrate=N/A speed=19.7x    frame=10524 fps=474 q=-0.0 size=N/A time=00:07:18.93 bitrate=N/A speed=19.8x    frame=10811 fps=476 q=-0.0 size=N/A time=00:07:30.90 bitrate=N/A speed=19.8x    frame=11085 fps=477 q=-0.0 size=N/A time=00:07:42.33 bitrate=N/A speed=19.9x    frame=11365 fps=479 q=-0.0 size=N/A time=00:07:54.01 bitrate=N/A speed=  20x    frame=11638 fps=480 q=-0.0 size=N/A time=00:08:05.40 bitrate=N/A speed=  20x    frame=11925 fps=481 q=-0.0 size=N/A time=00:08:17.37 bitrate=N/A speed=20.1x    frame=12201 fps=482 q=-0.0 size=N/A time=00:08:28.88 bitrate=N/A speed=20.1x    frame=12494 fps=484 q=-0.0 size=N/A time=00:08:41.10 bitrate=N/A speed=20.2x    frame=12768 fps=485 q=-0.0 size=N/A time=00:08:52.53 bitrate=N/A speed=20.2x    frame=13055 fps=486 q=-0.0 size=N/A time=00:09:04.50 bitrate=N/A speed=20.3x    frame=13325 fps=487 q=-0.0 size=N/A time=00:09:15.76 bitrate=N/A speed=20.3x    frame=13603 fps=488 q=-0.0 size=N/A time=00:09:27.35 bitrate=N/A speed=20.3x    frame=13887 fps=489 q=-0.0 size=N/A time=00:09:39.20 bitrate=N/A speed=20.4x    frame=14156 fps=490 q=-0.0 size=N/A time=00:09:50.42 bitrate=N/A speed=20.4x    frame=14452 fps=491 q=-0.0 size=N/A time=00:10:02.76 bitrate=N/A speed=20.5x    frame=14733 fps=492 q=-0.0 size=N/A time=00:10:14.48 bitrate=N/A speed=20.5x    frame=15019 fps=493 q=-0.0 size=N/A time=00:10:26.41 bitrate=N/A speed=20.6x    frame=15283 fps=493 q=-0.0 size=N/A time=00:10:37.42 bitrate=N/A speed=20.6x    frame=15558 fps=494 q=-0.0 size=N/A time=00:10:48.89 bitrate=N/A speed=20.6x    frame=15815 fps=494 q=-0.0 size=N/A time=00:10:59.61 bitrate=N/A speed=20.6x    frame=16079 fps=494 q=-0.0 size=N/A time=00:11:10.62 bitrate=N/A speed=20.6x    frame=16344 fps=495 q=-0.0 size=N/A time=00:11:21.68 bitrate=N/A speed=20.6x    frame=16605 fps=495 q=-0.0 size=N/A time=00:11:32.56 bitrate=N/A speed=20.6x    frame=16902 fps=496 q=-0.0 size=N/A time=00:11:44.95 bitrate=N/A speed=20.7x    frame=17158 fps=496 q=-0.0 size=N/A time=00:11:55.63 bitrate=N/A speed=20.7x    frame=17445 fps=497 q=-0.0 size=N/A time=00:12:07.60 bitrate=N/A speed=20.7x    frame=17705 fps=497 q=-0.0 size=N/A time=00:12:18.44 bitrate=N/A speed=20.7x    frame=17979 fps=497 q=-0.0 size=N/A time=00:12:29.87 bitrate=N/A speed=20.7x    frame=18244 fps=498 q=-0.0 size=N/A time=00:12:40.92 bitrate=N/A speed=20.8x    frame=18520 fps=498 q=-0.0 size=N/A time=00:12:52.43 bitrate=N/A speed=20.8x    frame=18800 fps=499 q=-0.0 size=N/A time=00:13:04.11 bitrate=N/A speed=20.8x    frame=19044 fps=498 q=-0.0 size=N/A time=00:13:14.29 bitrate=N/A speed=20.8x    frame=19286 fps=498 q=-0.0 size=N/A time=00:13:24.38 bitrate=N/A speed=20.8x    frame=19570 fps=499 q=-0.0 size=N/A time=00:13:36.23 bitrate=N/A speed=20.8x    frame=19846 fps=499 q=-0.0 size=N/A time=00:13:47.74 bitrate=N/A speed=20.8x    frame=20121 fps=500 q=-0.0 size=N/A time=00:13:59.21 bitrate=N/A speed=20.8x    frame=20405 fps=500 q=-0.0 size=N/A time=00:14:11.05 bitrate=N/A speed=20.9x    frame=20682 fps=501 q=-0.0 size=N/A time=00:14:22.61 bitrate=N/A speed=20.9x    frame=20971 fps=501 q=-0.0 size=N/A time=00:14:34.66 bitrate=N/A speed=20.9x    frame=21243 fps=502 q=-0.0 size=N/A time=00:14:46.01 bitrate=N/A speed=20.9x    frame=21508 fps=502 q=-0.0 size=N/A time=00:14:57.06 bitrate=N/A speed=20.9x    frame=21777 fps=502 q=-0.0 size=N/A time=00:15:08.28 bitrate=N/A speed=20.9x    frame=22055 fps=503 q=-0.0 size=N/A time=00:15:19.87 bitrate=N/A speed=  21x    frame=22339 fps=503 q=-0.0 size=N/A time=00:15:31.72 bitrate=N/A speed=  21x    frame=22606 fps=503 q=-0.0 size=N/A time=00:15:42.85 bitrate=N/A speed=  21x    frame=22863 fps=503 q=-0.0 size=N/A time=00:15:53.57 bitrate=N/A speed=  21x    frame=23132 fps=503 q=-0.0 size=N/A time=00:16:04.79 bitrate=N/A speed=  21x    frame=23393 fps=503 q=-0.0 size=N/A time=00:16:15.68 bitrate=N/A speed=  21x    frame=23617 fps=503 q=-0.0 size=N/A time=00:16:25.02 bitrate=N/A speed=  21x    frame=23849 fps=502 q=-0.0 size=N/A time=00:16:34.70 bitrate=N/A speed=20.9x    frame=24056 fps=501 q=-0.0 size=N/A time=00:16:43.33 bitrate=N/A speed=20.9x    frame=24295 fps=501 q=-0.0 size=N/A time=00:16:53.30 bitrate=N/A speed=20.9x    frame=24569 fps=501 q=-0.0 size=N/A time=00:17:04.73 bitrate=N/A speed=20.9x    frame=24840 fps=501 q=-0.0 size=N/A time=00:17:16.03 bitrate=N/A speed=20.9x    frame=25096 fps=501 q=-0.0 size=N/A time=00:17:26.71 bitrate=N/A speed=20.9x    frame=25364 fps=501 q=-0.0 size=N/A time=00:17:37.89 bitrate=N/A speed=20.9x    frame=25630 fps=501 q=-0.0 size=N/A time=00:17:48.98 bitrate=N/A speed=20.9x    frame=25903 fps=502 q=-0.0 size=N/A time=00:18:00.37 bitrate=N/A speed=20.9x    frame=26174 fps=502 q=-0.0 size=N/A time=00:18:11.67 bitrate=N/A speed=20.9x    frame=26451 fps=502 q=-0.0 size=N/A time=00:18:23.22 bitrate=N/A speed=20.9x    frame=26717 fps=502 q=-0.0 size=N/A time=00:18:34.32 bitrate=N/A speed=20.9x    frame=27001 fps=503 q=-0.0 size=N/A time=00:18:46.16 bitrate=N/A speed=  21x    frame=27263 fps=503 q=-0.0 size=N/A time=00:18:57.09 bitrate=N/A speed=  21x    frame=27520 fps=503 q=-0.0 size=N/A time=00:19:07.81 bitrate=N/A speed=  21x    frame=27774 fps=503 q=-0.0 size=N/A time=00:19:18.40 bitrate=N/A speed=  21x    frame=28043 fps=503 q=-0.0 size=N/A time=00:19:29.62 bitrate=N/A speed=  21x    frame=28310 fps=503 q=-0.0 size=N/A time=00:19:40.76 bitrate=N/A speed=  21x    frame=28582 fps=503 q=-0.0 size=N/A time=00:19:52.10 bitrate=N/A speed=  21x    frame=28862 fps=504 q=-0.0 size=N/A time=00:20:03.78 bitrate=N/A speed=  21x    frame=29142 fps=504 q=-0.0 size=N/A time=00:20:15.46 bitrate=N/A speed=  21x    frame=29408 fps=504 q=-0.0 size=N/A time=00:20:26.55 bitrate=N/A speed=  21x    frame=29680 fps=504 q=-0.0 size=N/A time=00:20:37.90 bitrate=N/A speed=  21x    frame=29940 fps=504 q=-0.0 size=N/A time=00:20:48.74 bitrate=N/A speed=  21x    frame=30222 fps=504 q=-0.0 size=N/A time=00:21:00.50 bitrate=N/A speed=  21x    frame=30504 fps=505 q=-0.0 size=N/A time=00:21:12.27 bitrate=N/A speed=21.1x    frame=30779 fps=505 q=-0.0 size=N/A time=00:21:23.74 bitrate=N/A speed=21.1x    frame=31043 fps=505 q=-0.0 size=N/A time=00:21:34.75 bitrate=N/A speed=21.1x    frame=31306 fps=505 q=-0.0 size=N/A time=00:21:45.72 bitrate=N/A speed=21.1x    frame=31579 fps=505 q=-0.0 size=N/A time=00:21:57.10 bitrate=N/A speed=21.1x    frame=31835 fps=505 q=-0.0 size=N/A time=00:22:07.78 bitrate=N/A speed=21.1x    frame=32092 fps=505 q=-0.0 size=N/A time=00:22:18.50 bitrate=N/A speed=21.1x    frame=32350 fps=505 q=-0.0 size=N/A time=00:22:29.26 bitrate=N/A speed=21.1x    frame=32611 fps=505 q=-0.0 size=N/A time=00:22:40.15 bitrate=N/A speed=21.1x    frame=32869 fps=505 q=-0.0 size=N/A time=00:22:50.91 bitrate=N/A speed=21.1x    frame=33109 fps=505 q=-0.0 size=N/A time=00:23:00.92 bitrate=N/A speed=21.1x    frame=33336 fps=504 q=-0.0 size=N/A time=00:23:10.38 bitrate=N/A speed=  21x    frame=33531 fps=503 q=-0.0 size=N/A time=00:23:18.52 bitrate=N/A speed=  21x    frame=33752 fps=503 q=-0.0 size=N/A time=00:23:27.73 bitrate=N/A speed=  21x    frame=33979 fps=502 q=-0.0 size=N/A time=00:23:37.20 bitrate=N/A speed=20.9x    frame=34196 fps=502 q=-0.0 size=N/A time=00:23:46.25 bitrate=N/A speed=20.9x    frame=34390 fps=501 q=-0.0 size=N/A time=00:23:54.34 bitrate=N/A speed=20.9x    frame=34597 fps=500 q=-0.0 size=N/A time=00:24:02.98 bitrate=N/A speed=20.9x    frame=34810 fps=499 q=-0.0 size=N/A time=00:24:11.86 bitrate=N/A speed=20.8x    [Parsed_ssim_10 @ 0000023feec37280] SSIM Y:0.995973 (23.950346) U:0.994357 (22.484748) V:0.994225 (22.384344) All:0.995412 (23.384117)
[out#0/null @ 0000023feef80640] video:15006KiB audio:273196KiB subtitle:0KiB other streams:0KiB global headers:0KiB muxing overhead: unknown
frame=34922 fps=499 q=-0.0 Lsize=N/A time=00:24:16.53 bitrate=N/A speed=20.8x    
